<?xml version="1.0" encoding="UTF-8"?>
<!DOCTYPE svg PUBLIC "-//W3C//DTD SVG 1.1//EN" "http://www.w3.org/Graphics/SVG/1.1/DTD/svg11.dtd">
<svg version="1.2" xmlns="http://www.w3.org/2000/svg" xmlns:xlink="http://www.w3.org/1999/xlink" x="49mm" y="-30mm" width="3132mm" height="1236mm" viewBox="49 -30 3132 1236">
<style type="text/css"><![CDATA[
text { font:12px Dialog; }
]]></style>
<line x1="430" y1="730" x2="430" y2="665" style="fill:none;stroke:rgb(64,64,64);stroke-linecap:square" />
<polygon points="430,665 438,685 422,685" style="fill:rgb(255,255,255);stroke:none" />
<polygon points="430,665 438,685 422,685" style="fill:none;stroke:rgb(64,64,64);stroke-linecap:square" />
<line x1="240" y1="950" x2="240" y2="920" style="fill:none;stroke:rgb(64,64,64);stroke-linecap:square" />
<line x1="240" y1="920" x2="430" y2="920" style="fill:none;stroke:rgb(64,64,64);stroke-linecap:square" />
<line x1="430" y1="920" x2="430" y2="860" style="fill:none;stroke:rgb(64,64,64);stroke-linecap:square" />
<polygon points="430,860 438,880 422,880" style="fill:rgb(255,255,255);stroke:none" />
<polygon points="430,860 438,880 422,880" style="fill:none;stroke:rgb(64,64,64);stroke-linecap:square" />
<line x1="630" y1="950" x2="630" y2="920" style="fill:none;stroke:rgb(64,64,64);stroke-linecap:square" />
<line x1="630" y1="920" x2="430" y2="920" style="fill:none;stroke:rgb(64,64,64);stroke-linecap:square" />
<line x1="430" y1="920" x2="430" y2="860" style="fill:none;stroke:rgb(64,64,64);stroke-linecap:square" />
<polygon points="430,860 438,880 422,880" style="fill:rgb(255,255,255);stroke:none" />
<polygon points="430,860 438,880 422,880" style="fill:none;stroke:rgb(64,64,64);stroke-linecap:square" />
<line x1="470" y1="40" x2="470" y2="70" style="fill:none;stroke:rgb(64,64,64);stroke-dasharray:4;stroke-dashoffset:0" />
<line x1="710" y1="330" x2="1090" y2="380" style="fill:none;stroke:rgb(64,64,64);stroke-dasharray:4;stroke-dashoffset:0" />
<line x1="1660" y1="1070" x2="1660" y2="870" style="fill:none;stroke:rgb(64,64,64);stroke-linecap:square" />
<polygon points="1660,870 1668,890 1652,890" style="fill:rgb(255,255,255);stroke:none" />
<polygon points="1660,870 1668,890 1652,890" style="fill:none;stroke:rgb(64,64,64);stroke-linecap:square" />
<line x1="2070" y1="1070" x2="2070" y2="1000" style="fill:none;stroke:rgb(64,64,64);stroke-linecap:square" />
<line x1="2070" y1="1000" x2="1660" y2="1000" style="fill:none;stroke:rgb(64,64,64);stroke-linecap:square" />
<line x1="1660" y1="1000" x2="1660" y2="870" style="fill:none;stroke:rgb(64,64,64);stroke-linecap:square" />
<polygon points="1660,870 1668,890 1652,890" style="fill:rgb(255,255,255);stroke:none" />
<polygon points="1660,870 1668,890 1652,890" style="fill:none;stroke:rgb(64,64,64);stroke-linecap:square" />
<line x1="2480" y1="1070" x2="2480" y2="1000" style="fill:none;stroke:rgb(64,64,64);stroke-linecap:square" />
<line x1="2480" y1="1000" x2="1660" y2="1000" style="fill:none;stroke:rgb(64,64,64);stroke-linecap:square" />
<line x1="1660" y1="1000" x2="1660" y2="870" style="fill:none;stroke:rgb(64,64,64);stroke-linecap:square" />
<polygon points="1660,870 1668,890 1652,890" style="fill:rgb(255,255,255);stroke:none" />
<polygon points="1660,870 1668,890 1652,890" style="fill:none;stroke:rgb(64,64,64);stroke-linecap:square" />
<line x1="2200" y1="1070" x2="2200" y2="1020" style="fill:none;stroke:rgb(204,51,255);stroke-linecap:square" />
<line x1="2200" y1="1020" x2="2200" y2="1010" style="fill:none;stroke:rgb(204,51,255);stroke-linecap:square" />
<line x1="2200" y1="1010" x2="2200" y2="950" style="fill:none;stroke:rgb(204,51,255);stroke-linecap:square" />
<polygon points="2200,950 2208,970 2192,970" style="fill:rgb(255,255,255);stroke:none" />
<polygon points="2200,950 2208,970 2192,970" style="fill:none;stroke:rgb(204,51,255);stroke-linecap:square" />
<line x1="2370" y1="1070" x2="2370" y2="1030" style="fill:none;stroke:rgb(204,51,255);stroke-linecap:square" />
<line x1="2370" y1="1030" x2="2200" y2="1030" style="fill:none;stroke:rgb(204,51,255);stroke-linecap:square" />
<line x1="2200" y1="1030" x2="2200" y2="950" style="fill:none;stroke:rgb(204,51,255);stroke-linecap:square" />
<polygon points="2200,950 2208,970 2192,970" style="fill:rgb(255,255,255);stroke:none" />
<polygon points="2200,950 2208,970 2192,970" style="fill:none;stroke:rgb(204,51,255);stroke-linecap:square" />
<line x1="2240" y1="430" x2="2240" y2="350" style="fill:none;stroke:rgb(64,64,64);stroke-linecap:square" />
<line x1="2240" y1="350" x2="2660" y2="350" style="fill:none;stroke:rgb(64,64,64);stroke-linecap:square" />
<line x1="2660" y1="350" x2="2660" y2="280" style="fill:none;stroke:rgb(64,64,64);stroke-linecap:square" />
<polygon points="2660,280 2668,300 2652,300" style="fill:rgb(255,255,255);stroke:none" />
<polygon points="2660,280 2668,300 2652,300" style="fill:none;stroke:rgb(64,64,64);stroke-linecap:square" />
<line x1="2550" y1="430" x2="2550" y2="350" style="fill:none;stroke:rgb(64,64,64);stroke-linecap:square" />
<line x1="2550" y1="350" x2="2660" y2="350" style="fill:none;stroke:rgb(64,64,64);stroke-linecap:square" />
<line x1="2660" y1="350" x2="2660" y2="280" style="fill:none;stroke:rgb(64,64,64);stroke-linecap:square" />
<polygon points="2660,280 2668,300 2652,300" style="fill:rgb(255,255,255);stroke:none" />
<polygon points="2660,280 2668,300 2652,300" style="fill:none;stroke:rgb(64,64,64);stroke-linecap:square" />
<line x1="2800" y1="430" x2="2800" y2="350" style="fill:none;stroke:rgb(64,64,64);stroke-linecap:square" />
<line x1="2800" y1="350" x2="2660" y2="350" style="fill:none;stroke:rgb(64,64,64);stroke-linecap:square" />
<line x1="2660" y1="350" x2="2660" y2="280" style="fill:none;stroke:rgb(64,64,64);stroke-linecap:square" />
<polygon points="2660,280 2668,300 2652,300" style="fill:rgb(255,255,255);stroke:none" />
<polygon points="2660,280 2668,300 2652,300" style="fill:none;stroke:rgb(64,64,64);stroke-linecap:square" />
<line x1="3050" y1="440" x2="3050" y2="350" style="fill:none;stroke:rgb(64,64,64);stroke-linecap:square" />
<line x1="3050" y1="350" x2="2660" y2="350" style="fill:none;stroke:rgb(64,64,64);stroke-linecap:square" />
<line x1="2660" y1="350" x2="2660" y2="280" style="fill:none;stroke:rgb(64,64,64);stroke-linecap:square" />
<polygon points="2660,280 2668,300 2652,300" style="fill:rgb(255,255,255);stroke:none" />
<polygon points="2660,280 2668,300 2652,300" style="fill:none;stroke:rgb(64,64,64);stroke-linecap:square" />
<line x1="930" y1="500" x2="730" y2="500" style="fill:none;stroke:rgb(64,64,64);stroke-linecap:square" />
<polyline points="750,492 730,500 750,508" style="fill:none;stroke:rgb(64,64,64);stroke-linecap:square" />
<line x1="1090" y1="380" x2="1090" y2="270" style="fill:none;stroke:rgb(64,64,64);stroke-linecap:square" />
<polyline points="1098,290 1090,270 1082,290" style="fill:none;stroke:rgb(64,64,64);stroke-linecap:square" />
<line x1="1110" y1="615" x2="1110" y2="770" style="fill:none;stroke:rgb(64,64,64);stroke-linecap:square" />
<polyline points="1102,750 1110,770 1118,750" style="fill:none;stroke:rgb(64,64,64);stroke-linecap:square" />
<line x1="1360" y1="90" x2="1400" y2="90" style="fill:none;stroke:rgb(64,64,64);stroke-linecap:square" />
<line x1="1400" y1="90" x2="1400" y2="710" style="fill:none;stroke:rgb(64,64,64);stroke-linecap:square" />
<line x1="1400" y1="710" x2="1470" y2="710" style="fill:none;stroke:rgb(64,64,64);stroke-linecap:square" />
<polyline points="1450,718 1470,710 1450,702" style="fill:none;stroke:rgb(64,64,64);stroke-linecap:square" />
<line x1="1530" y1="650" x2="1530" y2="475" style="fill:none;stroke:rgb(64,64,64);stroke-linecap:square" />
<polyline points="1538,495 1530,475 1522,495" style="fill:none;stroke:rgb(64,64,64);stroke-linecap:square" />
<line x1="1730" y1="650" x2="1730" y2="475" style="fill:none;stroke:rgb(64,64,64);stroke-linecap:square" />
<polyline points="1738,495 1730,475 1722,495" style="fill:none;stroke:rgb(64,64,64);stroke-linecap:square" />
<line x1="1840" y1="690" x2="1980" y2="690" style="fill:none;stroke:rgb(64,64,64);stroke-linecap:square" />
<line x1="1980" y1="690" x2="1980" y2="200" style="fill:none;stroke:rgb(64,64,64);stroke-linecap:square" />
<line x1="1980" y1="200" x2="2550" y2="200" style="fill:none;stroke:rgb(64,64,64);stroke-linecap:square" />
<polyline points="2530,208 2550,200 2530,192" style="fill:none;stroke:rgb(64,64,64);stroke-linecap:square" />
<line x1="2120" y1="515" x2="2120" y2="740" style="fill:none;stroke:rgb(64,64,64);stroke-linecap:square" />
<line x1="2120" y1="740" x2="1840" y2="740" style="fill:none;stroke:rgb(64,64,64);stroke-linecap:square" />
<polyline points="1860,732 1840,740 1860,748" style="fill:none;stroke:rgb(64,64,64);stroke-linecap:square" />
<line x1="2130" y1="430" x2="2130" y2="390" style="fill:none;stroke:rgb(64,64,64);stroke-linecap:square" />
<path d="M1974,390 C1974,393.3137085 1976.6862915,396 1980,396 C1983.3137085,396 1986,393.3137085 1986,390" style="fill:none;stroke:rgb(64,64,64);stroke-linecap:square" />
<line x1="2130" y1="390" x2="1986" y2="390" style="fill:none;stroke:rgb(64,64,64);stroke-linecap:square" />
<line x1="1974" y1="390" x2="1910" y2="390" style="fill:none;stroke:rgb(64,64,64);stroke-linecap:square" />
<polyline points="1930,382 1910,390 1930,398" style="fill:none;stroke:rgb(64,64,64);stroke-linecap:square" />
<line x1="2570" y1="515" x2="2570" y2="890" style="fill:none;stroke:rgb(64,64,64);stroke-linecap:square" />
<line x1="2570" y1="890" x2="2270" y2="890" style="fill:none;stroke:rgb(64,64,64);stroke-linecap:square" />
<polyline points="2290,882 2270,890 2290,898" style="fill:none;stroke:rgb(64,64,64);stroke-linecap:square" />
<line x1="2810" y1="515" x2="2810" y2="1100" style="fill:none;stroke:rgb(64,64,64);stroke-linecap:square" />
<line x1="2810" y1="1100" x2="2680" y2="1100" style="fill:none;stroke:rgb(64,64,64);stroke-linecap:square" />
<polyline points="2700,1092 2680,1100 2700,1108" style="fill:none;stroke:rgb(64,64,64);stroke-linecap:square" />
<rect x="1460" y="330" width="450" height="140" style="fill:rgb(255,247,225);stroke:none" />
<rect x="1460" y="330" width="450" height="140" style="fill:none;stroke:rgb(65,65,65);stroke-width:1.2;stroke-linecap:square" />
<text x="1662" y="352" style="font:12px Ubuntu">Position</text>
<line x1="1460" y1="365" x2="1910" y2="365" style="fill:none;stroke:rgb(65,65,65);stroke-width:1.2;stroke-linecap:square" />
<text x="1468" y="380" style="font:12px Ubuntu">- x : int</text>
<text x="1468" y="394" style="font:12px Ubuntu">- y : int</text>
<line x1="1460" y1="403" x2="1910" y2="403" style="fill:none;stroke:rgb(65,65,65);stroke-width:1.2;stroke-linecap:square" />
<text x="1468" y="418" style="font:12px Ubuntu">+ Position (x : int, y : int)</text>
<text x="1468" y="432" style="font:12px Ubuntu">+ const_getX () : int</text>
<text x="1468" y="446" style="font:12px Ubuntu">+ const_getY () : int</text>
<text x="1468" y="460" style="font:12px Ubuntu">+ getDistanceBetween (p1 : const_Position&amp;, p2 : const_Position&amp;) : double</text>
<rect x="2930" y="440" width="230" height="69" style="fill:rgb(255,247,225);stroke:none" />
<rect x="2930" y="440" width="230" height="69" style="fill:none;stroke:rgb(65,65,65);stroke-width:1.2;stroke-linecap:square" />
<text x="3033" y="462" style="font:12px Ubuntu">Stay</text>
<line x1="2930" y1="475" x2="3160" y2="475" style="fill:none;stroke:rgb(65,65,65);stroke-width:1.2;stroke-linecap:square" />
<line x1="2930" y1="485" x2="3160" y2="485" style="fill:none;stroke:rgb(65,65,65);stroke-width:1.2;stroke-linecap:square" />
<text x="2938" y="500" style="font:12px Ubuntu">+ override_execute (f : Field&amp;) : void</text>
<rect x="2680" y="430" width="230" height="83" style="fill:rgb(255,247,225);stroke:none" />
<rect x="2680" y="430" width="230" height="83" style="fill:none;stroke:rgb(65,65,65);stroke-width:1.2;stroke-linecap:square" />
<text x="2784" y="452" style="font:12px Ubuntu">Bite</text>
<line x1="2680" y1="465" x2="2910" y2="465" style="fill:none;stroke:rgb(65,65,65);stroke-width:1.2;stroke-linecap:square" />
<line x1="2680" y1="475" x2="2910" y2="475" style="fill:none;stroke:rgb(65,65,65);stroke-width:1.2;stroke-linecap:square" />
<text x="2688" y="490" style="font:12px Ubuntu">+ Bite (human : Human&amp;)</text>
<text x="2688" y="504" style="font:12px Ubuntu">+ override_execute (f : Field&amp;) : void</text>
<rect x="2050" y="430" width="370" height="83" style="fill:rgb(255,247,225);stroke:none" />
<rect x="2050" y="430" width="370" height="83" style="fill:none;stroke:rgb(65,65,65);stroke-width:1.2;stroke-linecap:square" />
<text x="2220" y="452" style="font:12px Ubuntu">Move</text>
<line x1="2050" y1="465" x2="2420" y2="465" style="fill:none;stroke:rgb(65,65,65);stroke-width:1.2;stroke-linecap:square" />
<line x1="2050" y1="475" x2="2420" y2="475" style="fill:none;stroke:rgb(65,65,65);stroke-width:1.2;stroke-linecap:square" />
<text x="2058" y="490" style="font:12px Ubuntu">+ Move (humanoid : Humanoid&amp;, direction : const_Position&amp;)</text>
<text x="2058" y="504" style="font:12px Ubuntu">+ override_execute (f : Field&amp;) : void</text>
<rect x="2440" y="430" width="220" height="83" style="fill:rgb(255,247,225);stroke:none" />
<rect x="2440" y="430" width="220" height="83" style="fill:none;stroke:rgb(65,65,65);stroke-width:1.2;stroke-linecap:square" />
<text x="2541" y="452" style="font:12px Ubuntu">Kill</text>
<line x1="2440" y1="465" x2="2660" y2="465" style="fill:none;stroke:rgb(65,65,65);stroke-width:1.2;stroke-linecap:square" />
<line x1="2440" y1="475" x2="2660" y2="475" style="fill:none;stroke:rgb(65,65,65);stroke-width:1.2;stroke-linecap:square" />
<text x="2448" y="490" style="font:12px Ubuntu">+ Kill (target : IKillable&amp;)</text>
<text x="2448" y="504" style="font:12px Ubuntu">+ override_execute (f : Field&amp;) : void</text>
<rect x="2280" y="1070" width="400" height="111" style="fill:rgb(255,247,225);stroke:none" />
<rect x="2280" y="1070" width="400" height="111" style="fill:none;stroke:rgb(65,65,65);stroke-width:1.2;stroke-linecap:square" />
<text x="2460" y="1092" style="font:12px Ubuntu">Human</text>
<line x1="2280" y1="1105" x2="2680" y2="1105" style="fill:none;stroke:rgb(65,65,65);stroke-width:1.2;stroke-linecap:square" />
<line x1="2280" y1="1115" x2="2680" y2="1115" style="fill:none;stroke:rgb(65,65,65);stroke-width:1.2;stroke-linecap:square" />
<text x="2288" y="1130" style="font:12px Ubuntu">+ Human (position : const_Position&amp;)</text>
<text x="2288" y="1144" style="font:12px Ubuntu">+ override_const_display (displayer : const_AbstractDisplay&amp;) : void</text>
<text x="2288" y="1158" style="font:12px Ubuntu">+ transformToVampire (f : Field&amp;) : void</text>
<text x="2288" y="1172" style="font:12px Ubuntu">+ override_kill () : void</text>
<rect x="2550" y="180" width="220" height="97" style="fill:rgb(255,247,225);stroke:none" />
<rect x="2550" y="180" width="220" height="97" style="fill:none;stroke:rgb(65,65,65);stroke-width:1.2;stroke-linecap:square" />
<text x="2642" y="202" style="font:12px Ubuntu">Action</text>
<line x1="2550" y1="215" x2="2770" y2="215" style="fill:none;stroke:rgb(65,65,65);stroke-width:1.2;stroke-linecap:square" />
<line x1="2550" y1="225" x2="2770" y2="225" style="fill:none;stroke:rgb(65,65,65);stroke-width:1.2;stroke-linecap:square" />
<text x="2558" y="240" style="font:12px Ubuntu"># Action ()</text>
<text x="2558" y="254" style="font:12px Ubuntu">+ virtual_~Action ()</text>
<text x="2558" y="268" style="font:12px Ubuntu">+ virtual_execute (f : Field&amp;) : void</text>
<rect x="1460" y="1070" width="390" height="111" style="fill:rgb(255,247,225);stroke:none" />
<rect x="1460" y="1070" width="390" height="111" style="fill:none;stroke:rgb(65,65,65);stroke-width:1.2;stroke-linecap:square" />
<text x="1640" y="1092" style="font:12px Ubuntu">Buffy</text>
<line x1="1460" y1="1105" x2="1850" y2="1105" style="fill:none;stroke:rgb(65,65,65);stroke-width:1.2;stroke-linecap:square" />
<line x1="1460" y1="1115" x2="1850" y2="1115" style="fill:none;stroke:rgb(65,65,65);stroke-width:1.2;stroke-linecap:square" />
<text x="1468" y="1130" style="font:12px Ubuntu">+ Buffy (position : const_Position&amp;)</text>
<text x="1468" y="1144" style="font:12px Ubuntu">+ override_const_display (displayer : const_AbsstractDisplay&amp;) : v...</text>
<text x="1468" y="1158" style="font:12px Ubuntu">+ override_setAction (f : Field&amp;) : void</text>
<text x="1468" y="1172" style="font:12px Ubuntu">+ override_const_moveDistance () : size_t</text>
<rect x="1870" y="1070" width="390" height="111" style="fill:rgb(255,247,225);stroke:none" />
<rect x="1870" y="1070" width="390" height="111" style="fill:none;stroke:rgb(65,65,65);stroke-width:1.2;stroke-linecap:square" />
<text x="2042" y="1092" style="font:12px Ubuntu">Vampire</text>
<line x1="1870" y1="1105" x2="2260" y2="1105" style="fill:none;stroke:rgb(65,65,65);stroke-width:1.2;stroke-linecap:square" />
<line x1="1870" y1="1115" x2="2260" y2="1115" style="fill:none;stroke:rgb(65,65,65);stroke-width:1.2;stroke-linecap:square" />
<text x="1878" y="1130" style="font:12px Ubuntu">+ Vampire (position : const_Position&amp;)</text>
<text x="1878" y="1144" style="font:12px Ubuntu">+ override_const_display (displayer : const_AbstractDisplay&amp;) : void</text>
<text x="1878" y="1158" style="font:12px Ubuntu">+ override_setAction (f : Field&amp;) : void</text>
<text x="1878" y="1172" style="font:12px Ubuntu">+ override_kill () : void</text>
<rect x="1470" y="650" width="370" height="209" style="fill:rgb(255,247,225);stroke:none" />
<rect x="1470" y="650" width="370" height="209" style="fill:none;stroke:rgb(65,65,65);stroke-width:1.2;stroke-linecap:square" />
<text x="1623" y="672" style="font:12px Ubuntu">Humanoide</text>
<line x1="1470" y1="685" x2="1840" y2="685" style="fill:none;stroke:rgb(65,65,65);stroke-width:1.2;stroke-linecap:square" />
<text x="1478" y="700" style="font:12px Ubuntu">- alive : bool</text>
<line x1="1470" y1="709" x2="1840" y2="709" style="fill:none;stroke:rgb(65,65,65);stroke-width:1.2;stroke-linecap:square" />
<text x="1478" y="724" style="font:12px Ubuntu"># Humanoide (position : const_Position&amp;)</text>
<text x="1478" y="738" style="font:12px Ubuntu">+ virtual_~Humanoide ()</text>
<text x="1478" y="752" style="font:12px Ubuntu">+ virtual_const_display (displayer : const_AbstractDisplay&amp;) : v...</text>
<text x="1478" y="766" style="font:12px Ubuntu">+ virtual_setAction (f : Field&amp;) : void</text>
<text x="1478" y="780" style="font:12px Ubuntu">+ executeAction (f : Field&amp;) : void</text>
<text x="1478" y="794" style="font:12px Ubuntu">+ const_isAlive () : bool</text>
<text x="1478" y="808" style="font:12px Ubuntu">+ move (newPosition : Position&amp;) : void</text>
<text x="1478" y="822" style="font:12px Ubuntu">+ const_isAt (x : unsigned, y : unsigned) : bool</text>
<text x="1478" y="836" style="font:12px Ubuntu">+ const_getPosition () : Position</text>
<text x="1478" y="850" style="font:12px Ubuntu">+ virtual_const_moveDistance () : size_t</text>
<rect x="960" y="770" width="290" height="111" style="fill:rgb(255,247,225);stroke:none" />
<rect x="960" y="770" width="290" height="111" style="fill:none;stroke:rgb(65,65,65);stroke-width:1.2;stroke-linecap:square" />
<text x="1072" y="792" style="font:12px Ubuntu">KeyListener</text>
<line x1="960" y1="805" x2="1250" y2="805" style="fill:none;stroke:rgb(65,65,65);stroke-width:1.2;stroke-linecap:square" />
<text x="968" y="820" style="font:12px Ubuntu">- QUIT : const_char</text>
<text x="968" y="834" style="font:12px Ubuntu">- NEXT : const_char</text>
<text x="968" y="848" style="font:12px Ubuntu">- STATISTICS : const_char</text>
<line x1="960" y1="857" x2="1250" y2="857" style="fill:none;stroke:rgb(65,65,65);stroke-width:1.2;stroke-linecap:square" />
<text x="968" y="872" style="font:12px Ubuntu">+ getNextInput (currentTurn : size_t) : Event</text>
<rect x="400" y="70" width="330" height="97" style="fill:rgb(255,247,225);stroke:none" />
<rect x="400" y="70" width="330" height="97" style="fill:none;stroke:rgb(65,65,65);stroke-width:1.2;stroke-linecap:square" />
<text x="549" y="92" style="font:12px Ubuntu">Event</text>
<line x1="400" y1="105" x2="730" y2="105" style="fill:none;stroke:rgb(65,65,65);stroke-width:1.2;stroke-linecap:square" />
<text x="408" y="120" style="font:12px Ubuntu">- event : Function</text>
<line x1="400" y1="129" x2="730" y2="129" style="fill:none;stroke:rgb(65,65,65);stroke-width:1.2;stroke-linecap:square" />
<text x="408" y="144" style="font:12px Ubuntu">+ Event (event : Function)</text>
<text x="408" y="158" style="font:12px Ubuntu">+ const_trigger (controller&amp; : BuffyAndVampires) : void</text>
<rect x="140" y="370" width="590" height="279" style="fill:rgb(255,247,225);stroke:none" />
<rect x="140" y="370" width="590" height="279" style="fill:none;stroke:rgb(65,65,65);stroke-width:1.2;stroke-linecap:square" />
<text x="392" y="392" style="font:12px Ubuntu">AbstractDisplay</text>
<line x1="140" y1="405" x2="730" y2="405" style="fill:none;stroke:rgb(65,65,65);stroke-width:1.2;stroke-linecap:square" />
<text x="148" y="420" style="font:12px Ubuntu">- CORNER : const_char</text>
<text x="148" y="434" style="font:12px Ubuntu">- TOP_BOT_BORDER : const_char</text>
<text x="148" y="448" style="font:12px Ubuntu">- LEFT_RGT_BORDER : const_char</text>
<text x="148" y="462" style="font:12px Ubuntu">- EMPTY : const_char</text>
<text x="148" y="476" style="font:12px Ubuntu"># BUFFY : const_char</text>
<text x="148" y="490" style="font:12px Ubuntu"># HUMAN : const_char</text>
<text x="148" y="504" style="font:12px Ubuntu"># VAMPIRE : const_char</text>
<line x1="140" y1="513" x2="730" y2="513" style="fill:none;stroke:rgb(65,65,65);stroke-width:1.2;stroke-linecap:square" />
<text x="148" y="528" style="font:12px Ubuntu">+ virtual_~AbstractDisplay ()</text>
<text x="148" y="542" style="font:12px Ubuntu">+ virtual_const_display (message : const_string&amp;) : void</text>
<text x="148" y="556" style="font:12px Ubuntu">+ virtual_const_display (field : const_Field&amp;) : void</text>
<text x="148" y="570" style="font:12px Ubuntu">+ virtual_const_display (vampire : const_Vampire&amp;) : void</text>
<text x="148" y="584" style="font:12px Ubuntu">+ virtual_const_display (human : const_Human&amp;) : void</text>
<text x="148" y="598" style="font:12px Ubuntu">+ virtual_const_display (buffy : const_Buffy&amp;) : void</text>
<text x="148" y="612" style="font:12px Ubuntu">+ virtual_const_clear () : void</text>
<text x="148" y="626" style="font:12px Ubuntu">+ virtual_const_displayStatistics (stats : double, nbIteration : unsigned, nbIterationMax : unsigned) : ...</text>
<text x="148" y="640" style="font:12px Ubuntu">- displayTopBotBorder (field : const_Field&amp;) : void</text>
<rect x="130" y="730" width="600" height="125" style="fill:rgb(255,247,225);stroke:none" />
<rect x="130" y="730" width="600" height="125" style="fill:none;stroke:rgb(65,65,65);stroke-width:1.2;stroke-linecap:square" />
<text x="385" y="752" style="font:12px Ubuntu">StandardDisplay</text>
<line x1="130" y1="765" x2="730" y2="765" style="fill:none;stroke:rgb(65,65,65);stroke-width:1.2;stroke-linecap:square" />
<line x1="130" y1="775" x2="730" y2="775" style="fill:none;stroke:rgb(65,65,65);stroke-width:1.2;stroke-linecap:square" />
<text x="138" y="790" style="font:12px Ubuntu">+ override_const_display (vampire : const_Vampire&amp;) : void</text>
<text x="138" y="804" style="font:12px Ubuntu">+ override_const_display (humane : const_Human&amp;) : void</text>
<text x="138" y="818" style="font:12px Ubuntu">+ override_const_display (buffy : const_Buffy&amp;) : void</text>
<text x="138" y="832" style="font:12px Ubuntu">+ override_const_clear () : void</text>
<text x="138" y="846" style="font:12px Ubuntu">+ override_const_displayStatistics (stats : double, nbIteration : unsigned, nbIterationMax : unsigned) : ...</text>
<rect x="440" y="950" width="380" height="181" style="fill:rgb(255,247,225);stroke:none" />
<rect x="440" y="950" width="380" height="181" style="fill:none;stroke:rgb(65,65,65);stroke-width:1.2;stroke-linecap:square" />
<text x="585" y="972" style="font:12px Ubuntu">WindowsDisplay</text>
<line x1="440" y1="985" x2="820" y2="985" style="fill:none;stroke:rgb(65,65,65);stroke-width:1.2;stroke-linecap:square" />
<text x="448" y="1000" style="font:12px Ubuntu">- BUFFY_COLOR : const_WORD</text>
<text x="448" y="1014" style="font:12px Ubuntu">- HUMAN_COLOR : const_WORD</text>
<text x="448" y="1028" style="font:12px Ubuntu">- VAMPIRE_COLOR : const_WORD</text>
<line x1="440" y1="1037" x2="820" y2="1037" style="fill:none;stroke:rgb(65,65,65);stroke-width:1.2;stroke-linecap:square" />
<text x="448" y="1052" style="font:12px Ubuntu">- changeColor () : void</text>
<text x="448" y="1066" style="font:12px Ubuntu">- getColor () : WORD</text>
<text x="448" y="1080" style="font:12px Ubuntu">+ override_const_display (vampire : const_Vampire&amp;) : void</text>
<text x="448" y="1094" style="font:12px Ubuntu">+ override_const_display (human : const_Human&amp;) : void</text>
<text x="448" y="1108" style="font:12px Ubuntu">+ override_const_display (buffy : const_Buffy&amp;) : void</text>
<text x="448" y="1122" style="font:12px Ubuntu">+ override_const_clear () : void</text>
<rect x="70" y="950" width="350" height="167" style="fill:rgb(255,247,225);stroke:none" />
<rect x="70" y="950" width="350" height="167" style="fill:none;stroke:rgb(65,65,65);stroke-width:1.2;stroke-linecap:square" />
<text x="210" y="972" style="font:12px Ubuntu">LinuxDisplay</text>
<line x1="70" y1="985" x2="420" y2="985" style="fill:none;stroke:rgb(65,65,65);stroke-width:1.2;stroke-linecap:square" />
<text x="78" y="1000" style="font:12px Ubuntu">- BUFFY_COLOR : const_string</text>
<text x="78" y="1014" style="font:12px Ubuntu">- HUMAN_COLOR : const_string</text>
<text x="78" y="1028" style="font:12px Ubuntu">- VAMPIRE_COLOR : const_string</text>
<line x1="70" y1="1037" x2="420" y2="1037" style="fill:none;stroke:rgb(65,65,65);stroke-width:1.2;stroke-linecap:square" />
<text x="78" y="1052" style="font:12px Ubuntu">- unsetStyle () : void</text>
<text x="78" y="1066" style="font:12px Ubuntu">+ override_const_display (vampire : const_Vampire&amp;) : void</text>
<text x="78" y="1080" style="font:12px Ubuntu">+ override_const_display (human : const_Human&amp;) : void</text>
<text x="78" y="1094" style="font:12px Ubuntu">+ override_const_display (buffy : const_Buffy&amp;) : void</text>
<text x="78" y="1108" style="font:12px Ubuntu">+ override_const_clear () : void</text>
<rect x="810" y="20" width="550" height="237" style="fill:rgb(255,247,225);stroke:none" />
<rect x="810" y="20" width="550" height="237" style="fill:none;stroke:rgb(65,65,65);stroke-width:1.2;stroke-linecap:square" />
<text x="1071" y="42" style="font:12px Ubuntu">Field</text>
<line x1="810" y1="55" x2="1360" y2="55" style="fill:none;stroke:rgb(65,65,65);stroke-width:1.2;stroke-linecap:square" />
<text x="818" y="70" style="font:12px Ubuntu">- turn : int</text>
<text x="818" y="84" style="font:12px Ubuntu">- size : const_size_t</text>
<line x1="810" y1="93" x2="1360" y2="93" style="fill:none;stroke:rgb(65,65,65);stroke-width:1.2;stroke-linecap:square" />
<text x="818" y="108" style="font:12px Ubuntu">- delete_Field (other : const_Field&amp;)</text>
<text x="818" y="122" style="font:12px Ubuntu">- delete_operator= (field : const_Field&amp;) : Field&amp;</text>
<text x="818" y="136" style="font:12px Ubuntu">+ Field (size : size_t, humansToCreate : size_t, vampiresToCreate : size_t)</text>
<text x="818" y="150" style="font:12px Ubuntu">+ ~Field ()</text>
<text x="818" y="164" style="font:12px Ubuntu">+ nextTurn () : int</text>
<text x="818" y="178" style="font:12px Ubuntu">+ const_getSize () : size_t</text>
<text x="818" y="192" style="font:12px Ubuntu">+ const_hasHumanoidAt (x : unsigned, y : unsigned) : bool</text>
<text x="818" y="206" style="font:12px Ubuntu">+ const_getHumanoidAt (x : unsigned, y : unsigned) : const_Humanoid&amp;</text>
<text x="818" y="220" style="font:12px Ubuntu">+ &lt;humanoidClass&gt;_const_getNearestKillable (position : const_Position&amp;) : humanoidClass*</text>
<text x="818" y="234" style="font:12px Ubuntu">+ &lt;humanoidClass&gt;_createHumanoid (position : const_Position&amp;) : void</text>
<text x="818" y="248" style="font:12px Ubuntu">+ &lt;humanoidClass&gt;_createHumanoids (amount : size_t) : void</text>
<rect x="930" y="380" width="360" height="223" style="fill:rgb(255,247,225);stroke:none" />
<rect x="930" y="380" width="360" height="223" style="fill:none;stroke:rgb(65,65,65);stroke-width:1.2;stroke-linecap:square" />
<text x="1058" y="402" style="font:12px Ubuntu">BuffyAndVampires</text>
<line x1="930" y1="415" x2="1290" y2="415" style="fill:none;stroke:rgb(65,65,65);stroke-width:1.2;stroke-linecap:square" />
<text x="938" y="430" style="font:12px Ubuntu">- NB_SIMULATIONS : const_int</text>
<text x="938" y="444" style="font:12px Ubuntu">- size : const_size_t</text>
<text x="938" y="458" style="font:12px Ubuntu">- humansToCreate : const_size_t</text>
<text x="938" y="472" style="font:12px Ubuntu">- vampiresToCreate : const_size_t</text>
<text x="938" y="486" style="font:12px Ubuntu">- noTurn : int</text>
<text x="938" y="500" style="font:12px Ubuntu">- exit : bool</text>
<line x1="930" y1="509" x2="1290" y2="509" style="fill:none;stroke:rgb(65,65,65);stroke-width:1.2;stroke-linecap:square" />
<text x="938" y="524" style="font:12px Ubuntu">+ BuffyAndVampires (display : const_AbstractDisplay&amp;, size :...</text>
<text x="938" y="538" style="font:12px Ubuntu">+ run () : void</text>
<text x="938" y="552" style="font:12px Ubuntu">- nextTurn () : void</text>
<text x="938" y="566" style="font:12px Ubuntu">- statistics () : void</text>
<text x="938" y="580" style="font:12px Ubuntu">- quit () : void</text>
<text x="938" y="594" style="font:12px Ubuntu">- printState () : void</text>
<rect x="100" y="70" width="270" height="111" style="fill:rgb(255,247,225);stroke:none" />
<rect x="100" y="70" width="270" height="111" style="fill:none;stroke:rgb(65,65,65);stroke-width:1.2;stroke-linecap:square" />
<text x="222" y="92" style="font:12px Ubuntu">Utils</text>
<line x1="100" y1="105" x2="370" y2="105" style="fill:none;stroke:rgb(65,65,65);stroke-width:1.2;stroke-linecap:square" />
<text x="108" y="120" style="font:12px Ubuntu">- init : bool</text>
<line x1="100" y1="129" x2="370" y2="129" style="fill:none;stroke:rgb(65,65,65);stroke-width:1.2;stroke-linecap:square" />
<text x="108" y="144" style="font:12px Ubuntu">+ delete_Utils ()</text>
<text x="108" y="158" style="font:12px Ubuntu">+ randomInteger (min : int, max : int) : int</text>
<text x="108" y="172" style="font:12px Ubuntu">+ randomPosition (size : int) : Position</text>
<rect x="2120" y="850" width="150" height="97" style="fill:rgb(255,247,225);stroke:none" />
<rect x="2120" y="850" width="150" height="97" style="fill:none;stroke:rgb(65,65,65);stroke-width:1.2;stroke-linecap:square" />
<text x="2173" y="872" style="font:12px Ubuntu">IKillable</text>
<line x1="2120" y1="885" x2="2270" y2="885" style="fill:none;stroke:rgb(65,65,65);stroke-width:1.2;stroke-linecap:square" />
<line x1="2120" y1="895" x2="2270" y2="895" style="fill:none;stroke:rgb(65,65,65);stroke-width:1.2;stroke-linecap:square" />
<text x="2128" y="910" style="font:12px Ubuntu"># IKillable ()</text>
<text x="2128" y="924" style="font:12px Ubuntu">+ virtual_~IKillable ()</text>
<text x="2128" y="938" style="font:12px Ubuntu">+ virtual_kill () : void</text>
<polygon points="390,10 731,10 746,25 746,40 390,40" style="fill:rgb(255,247,225);stroke:none" />
<polygon points="390,10 731,10 746,25 746,40 390,40" style="fill:none;stroke:rgb(64,64,64);stroke-width:1.2;stroke-linecap:square" />
<line x1="731" y1="10" x2="731" y2="25" style="fill:none;stroke:rgb(64,64,64);stroke-width:1.2;stroke-linecap:square" />
<line x1="731" y1="25" x2="746" y2="25" style="fill:none;stroke:rgb(64,64,64);stroke-width:1.2;stroke-linecap:square" />
<text x="395" y="30" style="font:12px Ubuntu">using </text>
<text x="428" y="30" style="font:12px Ubuntu">Function </text>
<text x="481" y="30" style="font:12px Ubuntu">= </text>
<text x="491" y="30" style="font:12px Ubuntu">std::function&lt;void </text>
<text x="597" y="30" style="font:12px Ubuntu">(BuffyAndVampires&amp;)&gt; </text>
<polygon points="540,300 877,300 892,315 892,345 540,345" style="fill:rgb(255,247,225);stroke:none" />
<polygon points="540,300 877,300 892,315 892,345 540,345" style="fill:none;stroke:rgb(64,64,64);stroke-width:1.2;stroke-linecap:square" />
<line x1="877" y1="300" x2="877" y2="315" style="fill:none;stroke:rgb(64,64,64);stroke-width:1.2;stroke-linecap:square" />
<line x1="877" y1="315" x2="892" y2="315" style="fill:none;stroke:rgb(64,64,64);stroke-width:1.2;stroke-linecap:square" />
<text x="545" y="320" style="font:12px Ubuntu">friend </text>
<text x="582" y="320" style="font:12px Ubuntu">Event </text>
<text x="617" y="320" style="font:12px Ubuntu">KeyListener::getNextInput(size_t </text>
<text x="545" y="335" style="font:12px Ubuntu">currentTurn); </text>
<text x="800" y="488" style="font:14px Ubuntu">- display</text>
<text x="902" y="488" style="font:14px Ubuntu">0..*</text>
<text x="742" y="482" style="font:14px Ubuntu">1</text>
<text x="1101" y="333" style="font:14px Ubuntu">-field</text>
<text x="1067" y="368" style="font:14px Ubuntu">1</text>
<text x="1066" y="296" style="font:14px Ubuntu">1</text>
<text x="1115" y="710" style="font:14px Ubuntu">- listener</text>
<text x="1097" y="633" style="font:14px Ubuntu">1</text>
<text x="1097" y="762" style="font:14px Ubuntu">1</text>
<text x="1318" y="348" style="font:14px Ubuntu">- humanoids</text>
<text x="1365" y="82" style="font:14px Ubuntu">1</text>
<text x="1432" y="700" style="font:14px Ubuntu">3..*</text>
<text x="1463" y="574" style="font:14px Ubuntu">- position</text>
<text x="1504" y="640" style="font:14px Ubuntu">0..1</text>
<text x="1506" y="495" style="font:14px Ubuntu">1</text>
<text x="1657" y="579" style="font:14px Ubuntu">- direction</text>
<text x="1703" y="638" style="font:14px Ubuntu">0..1</text>
<text x="1717" y="493" style="font:14px Ubuntu">1</text>
<text x="2237" y="188" style="font:14px Ubuntu">- action</text>
<text x="1851" y="682" style="font:14px Ubuntu">0..1</text>
<text x="2537" y="192" style="font:14px Ubuntu">1</text>
<text x="1983" y="726" style="font:14px Ubuntu">- humanoidToMove</text>
<text x="2088" y="533" style="font:14px Ubuntu">0..1</text>
<text x="1845" y="732" style="font:14px Ubuntu">1</text>
<text x="2042" y="380" style="font:14px Ubuntu">-newPosition</text>
<text x="2095" y="420" style="font:14px Ubuntu">0..1</text>
<text x="1915" y="382" style="font:14px Ubuntu">1</text>
<text x="2442" y="882" style="font:14px Ubuntu">-target</text>
<text x="2540" y="534" style="font:14px Ubuntu">0..*</text>
<text x="2285" y="872" style="font:14px Ubuntu">1</text>
<text x="2759" y="853" style="font:14px Ubuntu">-human</text>
<text x="2781" y="533" style="font:14px Ubuntu">0..*</text>
<text x="2712" y="1083" style="font:14px Ubuntu">1</text>
<path d="M50,-29 L50,1 L239,1 Q269,1 269,-29 L50,-29" style="fill:rgb(255,247,225);stroke:none" />
<path d="M50,-29 L50,1 L239,1 Q269,1 269,-29 L50,-29" style="fill:none;stroke:rgb(65,65,65);stroke-width:1.2;stroke-linecap:square" />
<text x="55" y="-7" style="font:16px Ubuntu">Buffy la tueuse de vampire</text>
<rect x="50" y="-29" width="3129" height="1233" style="fill:none;stroke:rgb(64,64,64);stroke-linecap:square" />
</svg>
